<svg xmlns="http://www.w3.org/2000/svg" width="1991" height="245" viewBox="0 0 1991 245">
<rect width="1991" height="245" fill="#ffffff"/>
<text x="231.8" y="116.5" font-family="Georgia, serif" font-size="14" text-anchor="middle" fill="#555" font-style="italic">If any person, in committing</text>
<text x="231.8" y="136.5" font-family="Georgia, serif" font-size="14" text-anchor="middle" fill="#555" font-style="italic">or in attempting to commit</text>
<rect data-fnid="5" data-value="5" class="lad-box lad-clickable" x="470.6" y="70.0" width="200.5" height="39.6" rx="7" fill="#ffffff" stroke="#777" stroke-width="1.5"/>
<text data-fnid="5" x="570.8" y="94.8" font-family="Georgia, serif" font-size="14" text-anchor="middle" fill="#111">`commits robbery` OF f</text>
<path class="lad-wire lad-clickable" data-fold="4" d="M 397.5,122.6 C 452.3,122.6 415.8,89.8 470.6,89.8" fill="none" stroke="#777" stroke-width="1.5"/>
<path class="lad-wire lad-clickable" data-fold="4" d="M 671.0,89.8 C 725.8,89.8 689.3,122.6 744.1,122.6" fill="none" stroke="#777" stroke-width="1.5"/>
<rect data-fnid="7" data-value="7" class="lad-box lad-clickable" x="423.5" y="135.6" width="294.6" height="39.6" rx="7" fill="#ffffff" stroke="#777" stroke-width="1.5"/>
<text data-fnid="7" x="570.8" y="160.4" font-family="Georgia, serif" font-size="14" text-anchor="middle" fill="#111">f's `attempting to commit robbery`</text>
<path class="lad-wire lad-clickable" data-fold="4" d="M 397.5,122.6 C 427.5,122.6 393.5,155.4 423.5,155.4" fill="none" stroke="#777" stroke-width="1.5"/>
<path class="lad-wire lad-clickable" data-fold="4" d="M 718.1,155.4 C 748.1,155.4 714.1,122.6 744.1,122.6" fill="none" stroke="#777" stroke-width="1.5"/>
<rect data-fnid="9" data-value="9" class="lad-box lad-clickable" x="788.1" y="102.8" width="255.4" height="39.6" rx="7" fill="#ffffff" stroke="#777" stroke-width="1.5"/>
<text data-fnid="9" x="915.8" y="127.6" font-family="Georgia, serif" font-size="14" text-anchor="middle" fill="#111">f's `voluntarily causes hurt`</text>
<rect data-fnid="12" data-value="12" class="lad-box lad-clickable" x="1403.5" y="70.0" width="161.3" height="39.6" rx="7" fill="#ffffff" stroke="#777" stroke-width="1.5"/>
<text data-fnid="12" x="1484.2" y="94.8" font-family="Georgia, serif" font-size="14" text-anchor="middle" fill="#111">f's `such person`</text>
<path class="lad-wire lad-clickable" data-fold="11" d="M 1087.4,122.6 C 1207.4,122.6 1283.5,89.8 1403.5,89.8" fill="none" stroke="#777" stroke-width="1.5"/>
<path class="lad-wire lad-clickable" data-fold="11" d="M 1564.8,89.8 C 1684.8,89.8 1760.9,122.6 1880.9,122.6" fill="none" stroke="#777" stroke-width="1.5"/>
<rect data-fnid="14" data-value="14" class="lad-box lad-clickable" x="1113.4" y="135.6" width="741.4" height="39.6" rx="7" fill="#ffffff" stroke="#777" stroke-width="1.5"/>
<text data-fnid="14" x="1484.2" y="160.4" font-family="Georgia, serif" font-size="14" text-anchor="middle" fill="#111">f's `any other person jointly concerned in committing or attempting to commit such robbery`</text>
<path class="lad-wire lad-clickable" data-fold="11" d="M 1087.4,122.6 C 1117.4,122.6 1083.4,155.4 1113.4,155.4" fill="none" stroke="#777" stroke-width="1.5"/>
<path class="lad-wire lad-clickable" data-fold="11" d="M 1854.9,155.4 C 1884.9,155.4 1850.9,122.6 1880.9,122.6" fill="none" stroke="#777" stroke-width="1.5"/>
<polyline class="lad-wire lad-clickable" data-fold="2" points="353.5,122.6 397.5,122.6" fill="none" stroke="#777" stroke-width="1.5"/>
<polyline class="lad-wire lad-clickable" data-fold="2" points="744.1,122.6 788.1,122.6" fill="none" stroke="#777" stroke-width="1.5"/>
<polyline class="lad-wire lad-clickable" data-fold="2" points="1043.4,122.6 1087.4,122.6" fill="none" stroke="#777" stroke-width="1.5"/>
<polyline class="lad-wire lad-clickable" data-fold="2" points="110.0,122.6 353.5,122.6" fill="none" stroke="#777" stroke-width="1.5"/>
<polyline class="lad-wire" points="70.0,122.6 110.0,122.6" fill="none" stroke="#222" stroke-width="1.5"/>
<circle cx="70.0" cy="122.6" r="3.5" fill="#222"/>
<polyline class="lad-wire" points="1880.9,122.6 1920.9,122.6" fill="none" stroke="#222" stroke-width="1.5"/>
<circle cx="1920.9" cy="122.6" r="3.5" fill="#222"/>
</svg>