<svg xmlns="http://www.w3.org/2000/svg" width="1373" height="180" viewBox="0 0 1373 180">
<rect width="1373" height="180" fill="#ffffff"/>
<polyline class="lad-wire lad-clickable" data-fold="4" points="310.5,89.8 354.5,89.8" fill="none" stroke="#1b1b1b" stroke-width="3.4"/>
<polyline class="lad-wire lad-clickable" data-fold="4" points="594.2,89.8 638.2,89.8" fill="none" stroke="#1b1b1b" stroke-width="3.4"/>
<polyline class="lad-wire lad-clickable" data-fold="4" points="870.0,89.8 914.0,89.8" fill="none" stroke="#1b1b1b" stroke-width="3.4"/>
<polyline class="lad-wire" points="70.0,89.8 110.0,89.8" fill="none" stroke="#1b1b1b" stroke-width="3.4"/>
<polyline class="lad-wire" points="1263.4,89.8 1303.4,89.8" fill="none" stroke="#d6dadd" stroke-width="1.1"/>
<rect data-fnid="0" data-value="0" class="lad-box lad-clickable" x="110.0" y="70.0" width="200.5" height="39.6" rx="7" fill="#e8f5ec" stroke="#1a7f37" stroke-width="1.5"/>
<rect data-fnid="1" data-value="1" class="lad-box lad-clickable" x="354.5" y="70.0" width="239.7" height="39.6" rx="7" fill="#e8f5ec" stroke="#1a7f37" stroke-width="1.5"/>
<rect data-fnid="2" data-value="2" class="lad-box lad-clickable" x="638.2" y="70.0" width="231.8" height="39.6" rx="7" fill="#e8f5ec" stroke="#1a7f37" stroke-width="1.5"/>
<rect data-fnid="3" data-value="3" class="lad-box lad-clickable" x="914.0" y="70.0" width="349.4" height="39.6" rx="7" fill="#e4e8ec" stroke="#4a5560" stroke-width="1.5"/>
<line x1="1265.4" y1="82.8" x2="1265.4" y2="96.8" stroke="#4a5560" stroke-width="2"/><line x1="1279.4" y1="82.8" x2="1279.4" y2="96.8" stroke="#4a5560" stroke-width="2"/>
<circle cx="70.0" cy="89.8" r="3.5" fill="#3a3a3a"/>
<circle cx="1303.4" cy="89.8" r="3.5" fill="#3a3a3a"/>
<text data-fnid="0" x="210.2" y="94.8" font-family="Georgia, serif" font-size="14" text-anchor="middle" fill="#222">a mistake as to a term</text>
<text data-fnid="1" x="474.3" y="94.8" font-family="Georgia, serif" font-size="14" text-anchor="middle" fill="#222">the mistake was fundamental</text>
<text data-fnid="2" x="754.1" y="94.8" font-family="Georgia, serif" font-size="14" text-anchor="middle" fill="#222">knew or had reason to know</text>
<text data-fnid="3" x="1088.7" y="94.8" font-family="Georgia, serif" font-size="14" text-anchor="middle" fill="#222">deliberately set out to prevent discovery</text>
</svg>